<svg style="position: absolute; width: 0; height: 0;" width="0" height="0" version="1.1" xmlns="http://www.w3.org/2000/svg" xmlns:xlink="http://www.w3.org/1999/xlink">
<defs>
<symbol id="icon-arrow--down" viewBox="0 0 32 32">
<title>arrow_down</title>
<path class="path1" d="M25.024 21.056l-8.352 8.32v-29.376h-1.344v29.376l-8.352-8.32-0.96 0.96 9.984 9.984 9.984-9.984z"></path>
</symbol>
<symbol id="icon-arrow--left" viewBox="0 0 32 32">
<title>arrow_left</title>
<path class="path1" d="M10.944 25.024l-8.32-8.352h29.376v-1.344h-29.376l8.32-8.352-0.96-0.96-9.984 9.984 9.984 9.984z"></path>
</symbol>
<symbol id="icon-arrow--right" viewBox="0 0 32 32">
<title>arrow_right</title>
<path class="path1" d="M21.056 6.976l8.32 8.352h-29.376v1.344h29.376l-8.32 8.352 0.96 0.96 9.984-9.984-9.984-9.984z"></path>
</symbol>
<symbol id="icon-arrow--up" viewBox="0 0 32 32">
<title>arrow_up</title>
<path class="path1" d="M6.976 10.944l8.352-8.32v29.376h1.344v-29.376l8.352 8.32 0.96-0.96-9.984-9.984-9.984 9.984z"></path>
</symbol>
</defs>
</svg>
